# xmcd
#
# Track frame offsets: 
#        150
#        12597
#        29194
#        46423
#
# Disc length: 789 seconds
#
# Revision: 0
# Processed by: cddbd v1.5.2PL0 Copyright (c) Steve Scherf et al.
# Submitted via: ExactAudioCopyFreeDBPlugin 1.0
#
DISCID=33031304
DTITLE=Transvaal Diamond Syndicate - Homeward Bound
DYEAR=2010
DGENRE=Blues Rock
TTITLE0=Homeward Bound
TTITLE1=Behind That Smile
TTITLE2=Come a Knockin'
TTITLE3=Get On The Corner
EXTD=
EXTT0=
EXTT1=
EXTT2=
EXTT3=
PLAYORDER=
